Coordinates
version=1
nRows=49
nColumns=12
inDegrees=yes

Units are S.I. units (second, meters, Newtons, ...)
Angles are in degrees

endheader
time	SC_y	SC_z	SC_x	AC_y	AC_z	AC_x	GH_y	GH_z	GH_yy	EL_x	PS_y
       0.0              -18.33          11.39          59.64          56.09          7.959         -11.68          178.8          15.44          84.96          76.96          28.99
   0.01445              -18.33          11.39          59.64          56.09          7.958         -11.68          178.7          15.45          84.96          76.96          28.99
    0.0289              -18.34           11.4          59.65          56.09          7.957         -11.68          178.7          15.46          84.96          76.95          28.99
   0.04335              -18.34           11.4          59.65          56.08          7.956         -11.68          178.6          15.47          84.97          76.95          28.99
   0.05781              -18.34           11.4          59.65          56.08          7.955         -11.68          178.6          15.49          84.97          76.94          28.98
   0.07226              -18.35          11.41          59.65          56.08          7.954         -11.67          178.5           15.5          84.97          76.94          28.98
   0.08671              -18.35          11.41          59.65          56.08          7.953         -11.67          178.5          15.51          84.98          76.93          28.98
    0.1012              -18.35          11.42          59.65          56.07          7.951         -11.67          178.4          15.52          84.98          76.93          28.98
    0.1156              -18.36          11.42          59.66          56.07           7.95         -11.67          178.4          15.54          84.98          76.92          28.98
    0.1301              -18.36          11.43          59.66          56.07          7.949         -11.66          178.3          15.56          84.99          76.92          28.98
    0.1445              -18.37          11.44          59.66          56.07          7.947         -11.66          178.2          15.57          84.99          76.91          28.98
     0.159              -18.38          11.44          59.66          56.06          7.945         -11.66          178.2          15.59          84.99           76.9          28.98
    0.1734              -18.38          11.45          59.67          56.06          7.944         -11.65          178.1          15.61           85.0          76.89          28.98
    0.1879              -18.39          11.46          59.67          56.05          7.942         -11.65          178.0          15.63           85.0          76.89          28.98
    0.2023               -18.4          11.47          59.67          56.05           7.94         -11.64          177.9          15.65          85.01          76.88          28.98
    0.2168               -18.4          11.48          59.68          56.05          7.937         -11.64          177.8          15.68          85.02          76.87          28.98
    0.2312              -18.41          11.49          59.68          56.04          7.935         -11.63          177.7          15.71          85.02          76.86          28.97
    0.2457              -18.42           11.5          59.68          56.03          7.932         -11.63          177.6          15.74          85.03          76.84          28.97
    0.2601              -18.43          11.51          59.69          56.03          7.929         -11.62          177.4          15.77          85.04          76.83          28.97
    0.2746              -18.45          11.52          59.69          56.02          7.926         -11.61          177.3           15.8          85.05          76.82          28.97
     0.289              -18.46          11.54           59.7          56.01          7.922          -11.6          177.1          15.84          85.06           76.8          28.97
    0.3035              -18.47          11.56          59.71          56.01          7.918         -11.59          176.9          15.88          85.07          76.79          28.97
    0.3179              -18.49          11.57          59.71           56.0          7.914         -11.59          176.7          15.93          85.08          76.77          28.96
    0.3324               -18.5          11.59          59.72          55.99          7.909         -11.57          176.5          15.98          85.09          76.75          28.96
    0.3468              -18.52          11.61          59.73          55.98          7.904         -11.56          176.3          16.04           85.1          76.72          28.96
    0.3613              -18.54          11.64          59.74          55.97          7.898         -11.55          176.0          16.11          85.12           76.7          28.96
    0.3757              -18.57          11.67          59.75          55.95          7.891         -11.53          175.7          16.18          85.14          76.67          28.95
    0.3902              -18.59           11.7          59.76          55.94          7.884         -11.52          175.4          16.26          85.16          76.64          28.95
    0.4046              -18.62          11.73          59.77          55.92          7.876          -11.5          175.0          16.35          85.18           76.6          28.94
    0.4191              -18.66          11.77          59.79           55.9          7.866         -11.48          174.6          16.46           85.2          76.56          28.94
    0.4335               -18.7          11.82           59.8          55.88          7.855         -11.45          174.1          16.58          85.23          76.51          28.93
     0.448              -18.74          11.87          59.82          55.85          7.843         -11.42          173.5          16.71          85.27          76.46          28.93
    0.4624              -18.79          11.93          59.85          55.82          7.828         -11.39          172.9          16.87           85.3           76.4          28.92
    0.4769              -18.85           12.0          59.87          55.79          7.811         -11.35          172.1          17.06          85.35          76.32          28.91
    0.4913              -18.92          12.08           59.9          55.75          7.791         -11.31          171.2          17.27           85.4          76.24           28.9
    0.5058               -19.0          12.18          59.94           55.7          7.768         -11.26          170.2          17.53          85.46          76.14          28.89
    0.5202               -19.1          12.29          59.98          55.64          7.741          -11.2          168.9          17.83          85.54          76.02          28.87
    0.5347              -19.22          12.43          60.03          55.57          7.708         -11.12          167.5          18.19          85.62          75.88          28.86
    0.5492              -19.36          12.59          60.09          55.49          7.668         -11.03          165.7          18.63          85.73           75.7          28.83
    0.5636              -19.53          12.79          60.17          55.39          7.619         -10.92          163.5          19.16          85.86          75.49          28.81
    0.5781              -19.75          13.04          60.26          55.27          7.558         -10.79          160.7          19.82          86.02          75.23          28.78
    0.5925              -20.01          13.35          60.38          55.11          7.483         -10.62          157.4          20.64          86.22          74.91          28.74
     0.607              -20.35          13.74          60.52          54.92          7.388         -10.41          153.1          21.68          86.47           74.5          28.69
    0.6214              -20.77          14.24          60.71          54.67          7.268         -10.14          147.7          22.99          86.78          73.98          28.63
    0.6359              -21.32          14.88          60.95          54.35          7.114         -9.794          140.7          24.68          87.19          73.31          28.55
    0.6503              -22.02          15.69          61.25          53.95          6.916         -9.351          131.8          26.84          87.71          72.46          28.44
    0.6648              -22.92          16.74          61.64          53.43          6.663         -8.785          120.5           29.6          88.38          71.37          28.31
    0.6792              -24.04          18.05          62.14          52.77          6.345         -8.074          106.2          33.07          89.22           70.0          28.15
    0.6937              -25.41          19.65          62.73          51.98          5.958         -7.207          88.73           37.3          90.24          68.32          27.94
